<?xml version="1.0" encoding="UTF-8" standalone="no"?>
<!-- Generator: Adobe Illustrator 20.1.0, SVG Export Plug-In . SVG Version: 6.00 Build 0)  -->

<svg
   xmlns:dc="http://purl.org/dc/elements/1.1/"
   xmlns:cc="http://creativecommons.org/ns#"
   xmlns:rdf="http://www.w3.org/1999/02/22-rdf-syntax-ns#"
   xmlns:svg="http://www.w3.org/2000/svg"
   xmlns="http://www.w3.org/2000/svg"
   xmlns:sodipodi="http://sodipodi.sourceforge.net/DTD/sodipodi-0.dtd"
   xmlns:inkscape="http://www.inkscape.org/namespaces/inkscape"
   version="1.1"
   x="0px"
   y="0px"
   viewBox="0 0 200 200"
   style="enable-background:new 0 0 200 200;"
   xml:space="preserve"
   id="svg3467"
   inkscape:version="0.91 r13725"
   sodipodi:docname="doner.svg"><metadata
     id="metadata3481"><rdf:RDF><cc:Work
         rdf:about=""><dc:format>image/svg+xml</dc:format><dc:type
           rdf:resource="http://purl.org/dc/dcmitype/StillImage" /></cc:Work></rdf:RDF></metadata><defs
     id="defs3479" /><sodipodi:namedview
     pagecolor="#ffffff"
     bordercolor="#666666"
     borderopacity="1"
     objecttolerance="10"
     gridtolerance="10"
     guidetolerance="10"
     inkscape:pageopacity="0"
     inkscape:pageshadow="2"
     inkscape:window-width="879"
     inkscape:window-height="480"
     id="namedview3477"
     showgrid="false"
     inkscape:zoom="1.18"
     inkscape:cx="100"
     inkscape:cy="100"
     inkscape:window-x="20"
     inkscape:window-y="343"
     inkscape:window-maximized="0"
     inkscape:current-layer="Layer_1" /><style
     type="text/css"
     id="style3469">
	.st0{fill:#010202;stroke:#010202;stroke-miterlimit:10;}
	.st1{fill:#FFFFFF;}
	.st2{font-family:'Viga';}
	.st3{font-size:60px;}
</style><g
     id="Layer_1"><ellipse
       class="st0"
       cx="101.4"
       cy="101.5"
       rx="90.7"
       ry="89.1"
       id="ellipse3472" /><g
       transform="matrix(1 0 0 1 20.7923 122.7459)"
       style="font-size:60px;font-family:Viga;fill:#ffffff"
       id="text3474"><path
         d="m 37.2,-21.54 c -0.18,-6.42 0.48,-12.3 -4.32,-17.1 -2.82,-2.82 -6.84,-4.08 -11.28,-4.08 l -16.62,0 0,31.5 C 4.98,-2.82 8.64,0 21,0 c 4.44,0 9.06,-1.26 11.88,-4.08 3.66,-3.66 4.14,-8.1 4.38,-12.84 l -0.06,-4.62 z m -8.34,0 c 0,6.48 -0.24,9.54 -1.8,11.46 -1.44,1.74 -3.36,2.64 -6.24,2.64 -5.7,0 -7.5,-1.02 -7.5,-4.2 l 0,-23.64 7.5,0 c 2.88,0 4.8,0.9 6.24,2.64 1.56,1.92 1.8,4.62 1.8,11.1 z"
         style="font-size:60px;font-family:Viga;fill:#ffffff"
         id="path3484" /><path
         d="m 62.412188,-15.48 c 0,4.08 -0.660001,9.3 -6.66,9.3 -5.460001,0 -6.600001,-5.22 -6.600001,-9.54 l 0,-3.12 c 0,-4.56 1.320001,-8.88 6.600001,-8.88 5.999999,0 6.66,4.2 6.66,9.12 l 0,3.12 z m 7.799999,-1.8 c 0,-10.68 -3.179999,-17.46 -14.459999,-17.46 -11.7,0 -14.400001,7.5 -14.400001,17.46 0,10.8 2.64,18.12 14.400001,18.12 11.94,0 14.459999,-7.2 14.459999,-18.12 z"
         style="font-size:60px;font-family:Viga;fill:#ffffff"
         id="path3486" /><path
         d="m 103.03031,0 0,-22.98 c 0,-3.42 -0.66,-6.36 -3.179998,-8.88 -1.74,-1.74 -3.659999,-2.76 -6.78,-2.76 l -9.599999,4.44 -1.800001,-4.08 -5.82,0 0,34.26 7.8,0 0,-24.06 7.02,-2.94 c 2.460001,0 4.56,0.84 4.56,5.1 l 0,21.9 7.799998,0 z"
         style="font-size:60px;font-family:Viga;fill:#ffffff"
         id="path3488" /><path
         d="m 136.46625,-15.3 c 0.06,-1.68 0.12,-3.42 0.12,-4.92 0,-7.98 -3.12,-14.46 -13.02,-14.46 -9.9,0 -14.82,4.92 -14.82,16.32 0,15.06 4.5,19.08 15.06,19.14 7.32,0.06 12.72,-3.18 12.72,-12.72 l -7.02,0 c 0,3.96 -1.26,6.24 -5.64,6.24 -6.3,0 -7.2,-3.3 -7.2,-9.6 l 19.8,0 z m -19.8,-5.34 c 0,-6.72 3.06,-7.86 6.78,-7.86 4.14,0 6.06,1.26 6.06,7.86 l -12.84,0 z m 15.42,-26.28 -8.22,0 -2.28,6.36 c -0.18,0.54 -0.24,0.96 -0.24,1.32 0,1.08 0.72,1.56 1.68,1.56 1.44,0 3.06,-0.66 4.62,-2.88 l 4.44,-6.36 z"
         style="font-size:60px;font-family:Viga;fill:#ffffff"
         id="path3490" /><path
         d="m 161.89594,-34.14 c -1.14,-0.84 -2.16,-0.72 -3.48,-0.54 l -8.28,3.42 -1.8,-3 -5.82,0 0,34.26 7.8,0 0,-24.24 c 3.96,-2.34 7.38,-3 9.42,-2.22 l 2.16,-7.68 z"
         style="font-size:60px;font-family:Viga;fill:#ffffff"
         id="path3492" /></g></g><g
     id="Layer_2" /></svg>