<?xml version="1.0" encoding="UTF-8" standalone="no"?>
<!-- Generator: Adobe Illustrator 20.1.0, SVG Export Plug-In . SVG Version: 6.00 Build 0)  -->

<svg
   xmlns:dc="http://purl.org/dc/elements/1.1/"
   xmlns:cc="http://creativecommons.org/ns#"
   xmlns:rdf="http://www.w3.org/1999/02/22-rdf-syntax-ns#"
   xmlns:svg="http://www.w3.org/2000/svg"
   xmlns="http://www.w3.org/2000/svg"
   xmlns:sodipodi="http://sodipodi.sourceforge.net/DTD/sodipodi-0.dtd"
   xmlns:inkscape="http://www.inkscape.org/namespaces/inkscape"
   version="1.1"
   x="0px"
   y="0px"
   viewBox="0 0 200 200"
   style="enable-background:new 0 0 200 200;"
   xml:space="preserve"
   id="svg3617"
   inkscape:version="0.91 r13725"
   sodipodi:docname="forside.svg"><metadata
     id="metadata3633"><rdf:RDF><cc:Work
         rdf:about=""><dc:format>image/svg+xml</dc:format><dc:type
           rdf:resource="http://purl.org/dc/dcmitype/StillImage" /></cc:Work></rdf:RDF></metadata><defs
     id="defs3631" /><sodipodi:namedview
     pagecolor="#ffffff"
     bordercolor="#666666"
     borderopacity="1"
     objecttolerance="10"
     gridtolerance="10"
     guidetolerance="10"
     inkscape:pageopacity="0"
     inkscape:pageshadow="2"
     inkscape:window-width="879"
     inkscape:window-height="480"
     id="namedview3629"
     showgrid="false"
     inkscape:zoom="1.18"
     inkscape:cx="100"
     inkscape:cy="100"
     inkscape:window-x="20"
     inkscape:window-y="343"
     inkscape:window-maximized="0"
     inkscape:current-layer="Layer_1" /><style
     type="text/css"
     id="style3619">
	.st0{fill:#010202;stroke:#010202;stroke-miterlimit:10;}
	.st1{fill:none;}
	.st2{fill:#FFFFFF;}
	.st3{font-family:'Viga';}
	.st4{font-size:36px;}
</style><g
     id="Layer_1"><ellipse
       class="st0"
       cx="101.4"
       cy="101.5"
       rx="90.7"
       ry="89.1"
       id="ellipse3622" /><rect
       x="40.4"
       y="87"
       class="st1"
       width="142.5"
       height="68.8"
       id="rect3624" /><g
       transform="matrix(1 0 0 1 40.3638 114.0382)"
       style="font-size:36px;font-family:Viga;fill:#ffffff"
       id="text3626"><path
         d="m 19.872,-21.168 0,-4.464 -11.376,0 c -4.068,0 -5.508,1.44 -5.508,5.22 l 0,20.412 5.004,0 0,-10.404 9.036,0 0.36,-4.464 -9.396,0 0,-3.564 c 0,-2.016 0.72,-2.736 2.844,-2.736 l 9.036,0 z"
         style="font-size:36px;font-family:Viga;fill:#ffffff"
         id="path3636" /><path
         d="m 34.916063,-9.288 c 0,2.448 -0.396,5.58 -3.996001,5.58 -3.276,0 -3.96,-3.132 -3.96,-5.724 l 0,-1.872 c 0,-2.736 0.792,-5.328 3.96,-5.328 3.600001,0 3.996001,2.52 3.996001,5.472 l 0,1.872 z m 4.68,-1.08 c 0,-6.408 -1.908001,-10.476 -8.676001,-10.476 -7.02,0 -8.64,4.5 -8.64,10.476 0,6.48 1.584,10.872 8.64,10.872 7.164001,0 8.676001,-4.32 8.676001,-10.872 z"
         style="font-size:36px;font-family:Viga;fill:#ffffff"
         id="path3638" /><path
         d="m 54.246938,-20.484 c -0.684,-0.504 -1.296,-0.432 -2.088001,-0.324 l -4.968,2.052 -1.08,-1.8 -3.492,0 0,20.556 4.68,0 0,-14.544 c 2.376,-1.404 4.428,-1.8 5.652001,-1.332 l 1.296,-4.608 z"
         style="font-size:36px;font-family:Viga;fill:#ffffff"
         id="path3640" /><path
         d="m 71.513438,-5.688 c 0,-2.916 -1.116001,-5.544 -4.608,-6.192 l -4.356001,-0.792 c -1.476,-0.252 -1.656,-1.548 -1.656,-2.34 0,-0.864 0.900001,-1.908 2.952001,-1.908 1.835999,0 3.167999,0.504 3.275999,2.916 l 4.068,0 0,-0.468 c 0,-5.292 -3.923999,-6.372 -7.379999,-6.372 -4.140001,0 -7.452,2.088 -7.452,6.084 0,3.456 1.656,5.436 4.751999,5.94 l 3.636001,0.612 c 2.051999,0.36 2.196,1.692 2.196,2.736 0,1.62 -1.476,2.088 -2.880001,2.088 -2.736,0 -3.852,-0.612 -3.852,-2.88 l -4.247999,0 0,0.432 c 0,5.292 4.104,6.12 8.099999,6.12 3.816,0 7.164,-1.62 7.452001,-5.436 l 0,-0.54 z"
         style="font-size:36px;font-family:Viga;fill:#ffffff"
         id="path3642" /><path
         d="m 80.477437,-25.704 c 0,-2.232 -0.467999,-2.7 -2.699999,-2.7 -2.232,0 -2.736001,0.468 -2.736001,2.7 0,2.232 0.504001,2.736 2.736001,2.736 2.232,0 2.699999,-0.504 2.699999,-2.736 z M 80.081438,0 l 0,-19.8 -4.680001,0 0,19.8 4.680001,0 z"
         style="font-size:36px;font-family:Viga;fill:#ffffff"
         id="path3644" /><path
         d="m 100.18519,0 0,-27.072 -4.680002,0 0,6.66 -4.932,0 c -6.552001,0 -6.840001,5.256 -6.840001,10.296 0,5.868 1.116,10.332 6.876001,10.332 l 5.003999,-2.7 1.440001,2.484 3.132002,0 z m -4.680002,-6.552 -3.564001,1.836 c -2.807999,0 -3.527999,-1.62 -3.527999,-5.4 0,-3.78 0.72,-6.084 3.527999,-6.084 l 3.564001,0 0,9.648 z"
         style="font-size:36px;font-family:Viga;fill:#ffffff"
         id="path3646" /><path
         d="m 120.83288,-9.18 c 0.036,-1.008 0.072,-2.052 0.072,-2.952 0,-4.788 -1.872,-8.676 -7.812,-8.676 -5.94001,0 -8.89201,2.952 -8.89201,9.792 0,9.036 2.70001,11.484 9.036,11.484 4.392,0 7.63201,-2.088 7.63201,-7.452 l -4.212,0 c 0,0.936 -0.756,3.204 -3.384,3.204 -3.78001,0 -4.428,-1.98 -4.428,-5.4 l 11.988,0 z m -11.88,-3.204 c 0,-3.312 1.764,-4.536 3.996,-4.536 2.48399,0 3.708,1.296 3.708,4.536 l -7.704,0 z"
         style="font-size:36px;font-family:Viga;fill:#ffffff"
         id="path3648" /></g></g><g
     id="Layer_2" /></svg>